<svg version="1.1" id="Layer_1" xmlns="http://www.w3.org/2000/svg" xmlns:xlink="http://www.w3.org/1999/xlink" x="0px" y="0px"
	 width="100%" viewBox="0 0 225 225" enable-background="new 0 0 225 225" xml:space="preserve">
<path fill="#B9252A" opacity="1.000000" stroke="none" 
	d="
M149.000000,226.000000 
	C99.333336,226.000000 50.166672,226.000000 1.000007,226.000000 
	C1.000004,151.000000 1.000004,76.000015 1.000002,1.000017 
	C75.999992,1.000011 150.999985,1.000011 225.999969,1.000006 
	C225.999985,75.999985 225.999985,150.999969 226.000000,225.999969 
	C200.500000,226.000000 175.000000,226.000000 149.000000,226.000000 
M123.973106,164.441620 
	C146.270477,149.030640 168.552383,133.597198 190.888931,118.243202 
	C193.141449,116.694832 194.471725,115.234619 193.792267,112.206291 
	C186.941299,81.671608 170.022888,58.506351 143.192474,42.472317 
	C141.025330,41.177219 139.573639,41.326054 137.481613,42.802402 
	C127.565575,49.800182 117.475861,56.551540 107.462601,63.411968 
	C93.471931,72.997452 79.463173,82.557083 65.526001,92.219864 
	C59.838322,96.163185 57.458900,102.770592 59.221920,108.840363 
	C60.810680,114.310181 65.447975,117.603424 72.130325,118.155174 
	C73.703529,118.285065 75.246544,118.780472 76.870377,119.121788 
	C70.728355,131.975174 75.973465,146.582504 96.166382,150.512619 
	C95.804062,153.791748 94.829071,157.123917 95.203964,160.296555 
	C96.164726,168.426941 107.156059,173.964661 114.457291,170.222427 
	C117.543114,168.640793 120.441025,166.692535 123.973106,164.441620 
M68.747963,170.093201 
	C61.193642,159.306274 53.639317,148.519333 45.680138,137.154297 
	C41.198692,148.965317 37.108467,159.745255 32.912464,170.803970 
	C45.111797,170.803970 56.748543,170.803970 68.747963,170.093201 
z"/>
<path fill="#FEFDFD" opacity="1.000000" stroke="none" 
	d="
M123.698730,164.676270 
	C120.441025,166.692535 117.543114,168.640793 114.457291,170.222427 
	C107.156059,173.964661 96.164726,168.426941 95.203964,160.296555 
	C94.829071,157.123917 95.804062,153.791748 96.166382,150.512619 
	C75.973465,146.582504 70.728355,131.975174 76.870377,119.121788 
	C75.246544,118.780472 73.703529,118.285065 72.130325,118.155174 
	C65.447975,117.603424 60.810680,114.310181 59.221920,108.840363 
	C57.458900,102.770592 59.838322,96.163185 65.526001,92.219864 
	C79.463173,82.557083 93.471931,72.997452 107.462601,63.411968 
	C117.475861,56.551540 127.565575,49.800182 137.481613,42.802402 
	C139.573639,41.326054 141.025330,41.177219 143.192474,42.472317 
	C170.022888,58.506351 186.941299,81.671608 193.792267,112.206291 
	C194.471725,115.234619 193.141449,116.694832 190.888931,118.243202 
	C168.552383,133.597198 146.270477,149.030640 123.698730,164.676270 
M151.144730,108.653748 
	C161.174866,101.619255 171.205002,94.584763 182.103928,86.940948 
	C175.547363,78.230309 169.276367,69.899071 163.051666,61.629322 
	C136.594864,79.762299 110.794296,97.337189 85.171097,115.167007 
	C82.472214,117.045029 80.251472,120.150475 78.796616,123.163414 
	C75.776932,129.417038 78.135651,136.559860 84.084793,141.277405 
	C90.425140,146.305176 96.272751,146.744598 102.253960,142.592590 
	C118.354134,131.416275 134.443924,120.224991 151.144730,108.653748 
z"/>
<path fill="#FDFBFB" opacity="1.000000" stroke="none" 
	d="
M68.566620,170.448578 
	C56.748543,170.803970 45.111797,170.803970 32.912464,170.803970 
	C37.108467,159.745255 41.198692,148.965317 45.680138,137.154297 
	C53.639317,148.519333 61.193642,159.306274 68.566620,170.448578 
z"/>
<path fill="#B9262B" opacity="1.000000" stroke="none" 
	d="
M150.841278,108.846695 
	C134.443924,120.224991 118.354134,131.416275 102.253960,142.592590 
	C96.272751,146.744598 90.425140,146.305176 84.084793,141.277405 
	C78.135651,136.559860 75.776932,129.417038 78.796616,123.163414 
	C80.251472,120.150475 82.472214,117.045029 85.171097,115.167007 
	C110.794296,97.337189 136.594864,79.762299 163.051666,61.629322 
	C169.276367,69.899071 175.547363,78.230309 182.103928,86.940948 
	C171.205002,94.584763 161.174866,101.619255 150.841278,108.846695 
z"/>
</svg>